<?xml version="1.0" standalone="no"?>
<!DOCTYPE svg PUBLIC "-//W3C//DTD SVG 20010904//EN"
 "http://www.w3.org/TR/2001/REC-SVG-20010904/DTD/svg10.dtd">
<svg version="1.0" xmlns="http://www.w3.org/2000/svg"
 width="1024.000000pt" height="1024.000000pt" viewBox="0 0 1024.000000 1024.000000"
 preserveAspectRatio="xMidYMid meet">
<metadata>
Created by potrace 1.14, written by Peter Selinger 2001-2017
</metadata>
<g transform="translate(0.000000,1024.000000) scale(0.100000,-0.100000)"
fill="#000000" stroke="none">
<path d="M0 5120 l0 -5120 5120 0 5120 0 0 5120 0 5120 -5120 0 -5120 0 0
-5120z m5700 759 c35 -5 65 -11 67 -12 1 -1 -3 -24 -9 -50 l-10 -47 -61 6
c-107 10 -136 -14 -160 -129 l-15 -67 58 0 c31 0 59 -2 62 -5 3 -3 2 -20 -1
-38 -7 -31 -8 -32 -71 -37 l-65 -5 -36 -175 c-19 -96 -40 -193 -45 -215 l-10
-40 -126 -3 -126 -3 14 58 c35 145 81 373 76 378 -3 3 -23 5 -44 5 -41 0 -46
9 -28 54 8 23 15 26 54 26 43 0 44 1 51 38 10 56 52 143 88 180 75 79 187 106
337 81z m-4014 -91 c-4 -18 -19 -93 -35 -165 l-29 -133 73 0 72 0 32 153 c18
83 34 158 36 165 3 9 39 12 135 12 71 0 130 -1 130 -3 0 -1 -36 -169 -80 -372
-44 -203 -80 -373 -80 -377 0 -5 -58 -8 -130 -8 -77 0 -130 4 -130 10 0 11 58
287 66 313 5 15 -3 17 -70 17 -42 0 -76 -2 -76 -5 0 -4 -55 -269 -65 -312 -5
-22 -9 -23 -136 -23 l-131 0 6 24 c3 13 37 173 76 357 39 184 73 344 77 357 5
21 9 22 135 22 l130 0 -6 -32z m758 0 c3 -18 13 -130 22 -248 9 -118 17 -217
19 -219 2 -2 28 48 58 110 30 63 84 176 121 252 l66 137 60 0 c34 0 59 -3 57
-7 -2 -5 -82 -176 -177 -380 l-174 -373 -143 0 -143 0 0 28 c0 15 -9 173 -20
352 -11 179 -20 337 -20 353 l0 27 135 0 134 0 5 -32z m974 2 c58 -33 82 -74
82 -141 0 -64 -20 -102 -79 -150 l-41 -32 29 -21 c60 -43 81 -116 57 -199 -25
-86 -109 -151 -224 -176 -60 -13 -472 -15 -472 -3 0 11 149 711 156 735 5 17
20 18 227 15 215 -3 223 -4 265 -28z m2612 -57 c-1 -5 -7 -37 -15 -73 -8 -36
-14 -68 -15 -72 0 -5 21 -8 46 -8 43 0 46 -2 40 -22 -3 -13 -6 -31 -6 -40 0
-15 -9 -18 -49 -18 l-49 0 -15 -69 c-32 -142 -50 -248 -44 -264 3 -9 22 -19
41 -22 33 -7 35 -9 29 -39 -3 -17 -10 -35 -15 -41 -11 -12 -155 -20 -203 -11
-48 9 -91 49 -99 91 -4 22 4 87 24 185 16 83 30 155 30 160 0 6 -20 10 -45 10
-44 0 -45 1 -39 28 10 48 12 50 46 57 57 13 121 51 173 104 48 50 51 51 107
51 32 0 58 -3 58 -7z m-1690 -162 c60 -19 61 -20 43 -89 l-15 -62 -79 0 -78 0
-3 36 c-4 48 -27 63 -62 41 -18 -12 -26 -26 -26 -47 0 -37 22 -51 113 -75 109
-28 154 -79 144 -163 -8 -76 -67 -132 -158 -151 -81 -18 -245 -14 -322 8 -37
10 -70 20 -72 23 -2 2 2 28 8 58 l12 55 83 3 c82 3 82 3 82 -22 0 -56 85 -71
109 -20 9 21 8 28 -12 48 -13 13 -53 33 -90 45 -83 28 -113 52 -128 101 -30
100 42 192 174 220 53 11 231 5 277 -9z m635 -8 c77 -40 105 -94 105 -204 0
-125 -66 -232 -172 -280 -47 -21 -68 -24 -183 -24 -115 0 -135 3 -171 22 -85
45 -120 118 -112 233 9 125 85 222 203 260 84 28 271 24 330 -7z m2613 2 c55
-23 89 -64 98 -120 6 -41 -23 -216 -57 -348 l-10 -38 -96 3 -96 3 -10 30 c-5
17 -11 32 -13 33 -1 2 -23 -10 -47 -27 -157 -108 -334 -28 -297 134 19 84 109
128 293 141 l98 6 -3 57 c-3 51 -5 56 -31 65 -37 13 -77 -8 -97 -51 l-15 -33
-82 0 c-92 0 -89 -3 -76 74 7 43 30 57 138 82 81 18 246 13 303 -11z m727 4
c12 -12 10 -32 -13 -134 l-27 -120 -65 0 -65 0 -6 53 c-10 79 -35 100 -77 65
-16 -14 -30 -58 -58 -195 l-38 -178 -123 0 c-123 0 -123 0 -118 23 3 12 25
119 50 237 25 118 47 225 50 238 5 22 9 23 102 20 l97 -3 9 -40 c6 -22 11 -41
12 -43 1 -1 21 16 44 38 23 22 56 44 74 49 43 14 135 8 152 -10z m550 -5 c21
-10 50 -35 63 -54 20 -30 23 -44 19 -91 -3 -32 -11 -70 -19 -85 l-13 -29 -173
-3 -173 -2 3 -77 c2 -59 7 -78 20 -87 22 -13 63 15 97 67 l24 37 95 0 95 0 -7
-32 c-19 -93 -25 -105 -65 -122 -112 -44 -304 -47 -388 -5 -26 13 -61 41 -77
62 -30 38 -31 42 -31 140 0 93 2 106 27 148 46 77 120 128 221 149 71 15 236
6 282 -16z m-2495 4 c0 -29 38 -319 42 -323 2 -3 35 71 74 163 l69 167 115 0
115 0 20 -175 20 -175 43 105 c24 58 57 138 74 178 l30 72 59 0 c41 0 59 -4
59 -12 -1 -7 -52 -123 -115 -258 l-114 -245 -128 0 -128 0 -21 125 -21 125
-56 -119 c-32 -65 -57 -122 -57 -127 0 -11 -260 -12 -260 -1 -1 4 -18 117 -39
252 -21 135 -36 248 -34 253 2 4 60 7 129 7 92 0 124 -3 124 -12z m-2638 -337
c73 -81 -17 -199 -134 -177 -101 19 -111 159 -15 202 51 23 116 12 149 -25z
m358 -646 c0 -12 -13 -15 -55 -15 l-55 0 0 -34 c0 -35 0 -35 52 -38 74 -4 77
-28 4 -28 l-56 0 0 -35 0 -34 57 -3 c34 -2 58 -8 61 -15 3 -10 -17 -13 -77
-13 l-81 0 0 108 c0 60 3 112 7 115 3 4 37 7 75 7 54 0 68 -3 68 -15z m285
-10 c30 -29 32 -45 5 -45 -11 0 -20 7 -20 15 0 21 -48 31 -66 13 -20 -20 -8
-46 26 -53 72 -16 104 -81 59 -121 -43 -39 -139 -13 -139 38 0 26 25 22 44 -7
20 -31 61 -33 76 -5 15 28 7 37 -56 65 -47 21 -54 28 -54 52 0 33 8 46 35 61
32 18 64 14 90 -13z m353 8 c2 -9 -9 -13 -37 -13 l-41 0 0 -100 c0 -82 -3
-100 -15 -100 -12 0 -15 18 -15 100 l0 100 -40 0 c-38 0 -49 8 -33 24 13 12
176 2 181 -11z m627 5 c30 -14 42 -50 26 -84 -6 -13 -29 -44 -52 -69 l-42 -45
52 0 c28 0 51 -4 51 -10 0 -6 -32 -10 -75 -10 -41 0 -75 3 -75 7 0 3 27 34 60
69 59 61 66 76 54 108 -10 26 -59 20 -72 -9 -14 -29 -32 -33 -32 -7 0 25 38
57 72 61 4 1 19 -4 33 -11z m317 -18 c29 -29 30 -34 26 -95 -5 -79 -24 -105
-78 -105 -57 0 -75 27 -75 112 0 64 2 72 28 94 37 32 62 30 99 -6z m293 18
c30 -14 42 -50 26 -84 -6 -13 -29 -44 -52 -69 l-42 -45 52 0 c28 0 51 -4 51
-10 0 -6 -32 -10 -75 -10 -41 0 -75 3 -75 7 0 3 27 34 60 69 59 61 66 76 54
108 -10 26 -59 20 -72 -9 -14 -29 -32 -33 -32 -7 0 25 38 57 72 61 4 1 19 -4
33 -11z m317 -18 c29 -29 30 -34 26 -95 -5 -79 -24 -105 -78 -105 -57 0 -75
27 -75 112 0 64 2 72 28 94 37 32 62 30 99 -6z m-1385 -176 c3 -8 1 -20 -5
-26 -15 -15 -43 8 -35 28 7 19 32 18 40 -2z"/>
<path d="M3148 5624 c-28 -128 -27 -132 37 -120 41 8 70 45 84 108 17 76 -8
128 -64 128 l-31 0 -26 -116z"/>
<path d="M3090 5363 c-7 -32 -20 -95 -29 -140 l-18 -83 44 0 c59 0 95 36 118
115 30 101 2 165 -70 165 -33 0 -34 -1 -45 -57z"/>
<path d="M4752 5472 c-37 -51 -57 -131 -57 -232 l0 -95 30 0 c22 0 35 8 51 33
30 44 54 154 54 246 l0 76 -29 0 c-21 0 -35 -8 -49 -28z"/>
<path d="M7343 5305 c-62 -27 -80 -113 -29 -136 18 -8 30 -7 54 5 30 15 42 40
57 114 6 30 5 32 -22 32 -15 -1 -42 -7 -60 -15z"/>
<path d="M8658 5490 c-24 -18 -68 -97 -68 -120 0 -7 25 -10 68 -8 l67 3 3 58
c4 84 -20 107 -70 67z"/>
<path d="M5590 4555 c-19 -23 -23 -105 -8 -135 9 -16 22 -25 38 -25 43 0 66
89 38 150 -13 29 -48 34 -68 10z"/>
<path d="M6200 4555 c-19 -23 -23 -105 -8 -135 9 -16 22 -25 38 -25 43 0 66
89 38 150 -13 29 -48 34 -68 10z"/>
</g>
</svg>
